<mxfile host="app.diagrams.net" modified="2024-04-11T15:09:46.608Z" agent="Mozilla/5.0 (Windows NT 10.0; Win64; x64) AppleWebKit/537.36 (KHTML, like Gecko) Chrome/123.0.0.0 Safari/537.36" etag="7w4hOBB00gcmXRJvgVSQ" version="24.2.0" type="device">
  <diagram name="Страница — 1" id="mlLoQDgVOsklPFNan2Vy">
    <mxGraphModel dx="2620" dy="923" grid="1" gridSize="10" guides="1" tooltips="1" connect="1" arrows="1" fold="1" page="1" pageScale="1" pageWidth="827" pageHeight="1169" math="0" shadow="0">
      <root>
        <mxCell id="0" />
        <mxCell id="1" parent="0" />
        <mxCell id="gXjTStoN0BY3kQTBtwNk-83" value="&lt;span style=&quot;font-size: 20px;&quot;&gt;&lt;b&gt;Asteroid&lt;/b&gt;&lt;/span&gt;&lt;br&gt;&lt;div&gt;&lt;div style=&quot;font-size: 19px;&quot;&gt;id&lt;/div&gt;&lt;/div&gt;&lt;div style=&quot;font-size: 19px;&quot;&gt;name&lt;/div&gt;&lt;div style=&quot;font-size: 19px;&quot;&gt;размер&lt;/div&gt;&lt;div style=&quot;font-size: 19px;&quot;&gt;форма&lt;/div&gt;&lt;div style=&quot;font-size: 19px;&quot;&gt;плотность&lt;/div&gt;&lt;div style=&quot;font-size: 19px;&quot;&gt;состав&lt;/div&gt;&lt;div style=&quot;font-size: 19px;&quot;&gt;траектория&lt;/div&gt;&lt;div style=&quot;font-size: 19px;&quot;&gt;координаты&lt;/div&gt;&lt;div style=&quot;font-size: 19px;&quot;&gt;уровень радиации&lt;/div&gt;&lt;div style=&quot;font-size: 19px;&quot;&gt;возможные угрозы&lt;/div&gt;" style="rounded=0;whiteSpace=wrap;html=1;align=left;" parent="1" vertex="1">
          <mxGeometry x="130" y="210" width="190" height="260" as="geometry" />
        </mxCell>
        <mxCell id="gXjTStoN0BY3kQTBtwNk-84" value="&lt;div&gt;&lt;div style=&quot;text-align: center;&quot;&gt;&lt;span style=&quot;font-size: 20px; background-color: initial;&quot;&gt;&lt;b&gt;Camera&lt;/b&gt;&lt;/span&gt;&lt;/div&gt;&lt;div style=&quot;font-size: 19px;&quot;&gt;id&lt;/div&gt;&lt;/div&gt;&lt;div style=&quot;font-size: 19px;&quot;&gt;тип&lt;/div&gt;&lt;div style=&quot;font-size: 19px;&quot;&gt;&lt;span style=&quot;background-color: initial;&quot;&gt;кол-во&lt;/span&gt;&lt;/div&gt;&lt;div style=&quot;font-size: 19px;&quot;&gt;разрешение&lt;/div&gt;&lt;div style=&quot;font-size: 19px;&quot;&gt;время съёмки&lt;/div&gt;&lt;div style=&quot;font-size: 19px;&quot;&gt;частота съёмки&lt;/div&gt;&lt;div style=&quot;font-size: 19px;&quot;&gt;местоположение&lt;br&gt;&lt;/div&gt;" style="rounded=0;whiteSpace=wrap;html=1;align=left;" parent="1" vertex="1">
          <mxGeometry x="395" y="30" width="270" height="190" as="geometry" />
        </mxCell>
        <mxCell id="gXjTStoN0BY3kQTBtwNk-86" value="" style="whiteSpace=wrap;html=1;aspect=fixed;" parent="1" vertex="1">
          <mxGeometry x="70" y="10" width="80" as="geometry" />
        </mxCell>
        <mxCell id="gXjTStoN0BY3kQTBtwNk-87" value="&lt;div&gt;&lt;div style=&quot;text-align: center;&quot;&gt;&lt;span style=&quot;font-size: 20px;&quot;&gt;&lt;b&gt;Probe&lt;/b&gt;&lt;/span&gt;&lt;/div&gt;&lt;div style=&quot;font-size: 19px;&quot;&gt;id&lt;br&gt;asteroid_id&lt;/div&gt;&lt;/div&gt;&lt;div style=&quot;font-size: 19px;&quot;&gt;тип&lt;/div&gt;&lt;div style=&quot;font-size: 19px;&quot;&gt;время запуска&lt;/div&gt;&lt;div style=&quot;font-size: 19px;&quot;&gt;мощность&lt;/div&gt;&lt;div style=&quot;font-size: 19px;&quot;&gt;&lt;span style=&quot;background-color: initial;&quot;&gt;координаты&lt;span style=&quot;white-space: pre;&quot;&gt;&#x9;&lt;/span&gt;&lt;/span&gt;&lt;/div&gt;&lt;div style=&quot;font-size: 19px;&quot;&gt;&lt;div&gt;результаты запуска&lt;/div&gt;&lt;/div&gt;" style="rounded=0;whiteSpace=wrap;html=1;align=left;" parent="1" vertex="1">
          <mxGeometry x="-150" y="230" width="220" height="189" as="geometry" />
        </mxCell>
        <mxCell id="gXjTStoN0BY3kQTBtwNk-92" value="" style="edgeStyle=entityRelationEdgeStyle;fontSize=12;html=1;endArrow=ERmany;rounded=0;exitX=0;exitY=0.75;exitDx=0;exitDy=0;entryX=1;entryY=0.25;entryDx=0;entryDy=0;" parent="1" source="gXjTStoN0BY3kQTBtwNk-83" target="gXjTStoN0BY3kQTBtwNk-87" edge="1">
          <mxGeometry width="100" height="100" relative="1" as="geometry">
            <mxPoint x="260" y="410" as="sourcePoint" />
            <mxPoint x="-20" y="320" as="targetPoint" />
          </mxGeometry>
        </mxCell>
        <mxCell id="asJcrZCVPH8W28nxY72f-1" value="&lt;div&gt;&lt;div style=&quot;text-align: center;&quot;&gt;&lt;span style=&quot;font-size: 20px;&quot;&gt;&lt;b&gt;Signals&lt;/b&gt;&lt;/span&gt;&lt;/div&gt;&lt;div style=&quot;font-size: 19px;&quot;&gt;id&lt;/div&gt;&lt;/div&gt;&lt;div style=&quot;font-size: 19px;&quot;&gt;частота&lt;/div&gt;&lt;div style=&quot;font-size: 19px;&quot;&gt;амплитуда&lt;/div&gt;&lt;div style=&quot;font-size: 19px;&quot;&gt;длительность&lt;/div&gt;&lt;div style=&quot;font-size: 19px;&quot;&gt;время записи&lt;/div&gt;&lt;div style=&quot;font-size: 19px;&quot;&gt;объём данных&lt;/div&gt;&lt;div style=&quot;font-size: 19px;&quot;&gt;устройство для записи&lt;/div&gt;" style="rounded=0;whiteSpace=wrap;html=1;align=left;" vertex="1" parent="1">
          <mxGeometry x="360" y="450" width="270" height="190" as="geometry" />
        </mxCell>
        <mxCell id="asJcrZCVPH8W28nxY72f-5" value="&lt;div&gt;&lt;div style=&quot;text-align: center;&quot;&gt;&lt;span style=&quot;font-size: 20px;&quot;&gt;&lt;b&gt;Наблюдения&lt;/b&gt;&lt;/span&gt;&lt;/div&gt;&lt;div style=&quot;font-size: 19px;&quot;&gt;id&lt;/div&gt;&lt;/div&gt;&lt;div style=&quot;font-size: 19px;&quot;&gt;методы&lt;/div&gt;&lt;div style=&quot;font-size: 19px;&quot;&gt;результаты&lt;/div&gt;&lt;div style=&quot;font-size: 19px;&quot;&gt;время наблюдения&lt;/div&gt;&lt;div style=&quot;font-size: 19px;&quot;&gt;местоположение&lt;br&gt;camera_id&lt;/div&gt;" style="rounded=0;whiteSpace=wrap;html=1;align=left;" vertex="1" parent="1">
          <mxGeometry x="680" y="255" width="270" height="170" as="geometry" />
        </mxCell>
        <mxCell id="asJcrZCVPH8W28nxY72f-10" value="&lt;span style=&quot;font-size: 20px;&quot;&gt;&lt;b&gt;Asteroid&lt;/b&gt;&lt;/span&gt;&lt;div style=&quot;font-size: 19px;&quot;&gt;id&lt;/div&gt;&lt;div style=&quot;font-size: 19px;&quot;&gt;name&lt;/div&gt;&lt;div style=&quot;font-size: 19px;&quot;&gt;размер&lt;/div&gt;&lt;div style=&quot;font-size: 19px;&quot;&gt;форма&lt;/div&gt;&lt;div style=&quot;font-size: 19px;&quot;&gt;плотность&lt;/div&gt;&lt;div style=&quot;font-size: 19px;&quot;&gt;скорость&lt;/div&gt;&lt;div style=&quot;font-size: 19px;&quot;&gt;состав&lt;/div&gt;&lt;div style=&quot;font-size: 19px;&quot;&gt;траектория&lt;/div&gt;&lt;div style=&quot;font-size: 19px;&quot;&gt;координаты&lt;/div&gt;&lt;div style=&quot;font-size: 19px;&quot;&gt;уровень радиации&lt;/div&gt;&lt;div style=&quot;font-size: 19px;&quot;&gt;возможные угрозы&lt;/div&gt;" style="rounded=0;whiteSpace=wrap;html=1;align=left;" vertex="1" parent="1">
          <mxGeometry x="210" y="1409" width="270" height="290" as="geometry" />
        </mxCell>
        <mxCell id="asJcrZCVPH8W28nxY72f-11" value="&lt;div&gt;&lt;div style=&quot;text-align: center;&quot;&gt;&lt;span style=&quot;font-size: 20px; background-color: initial;&quot;&gt;&lt;b&gt;Camera&lt;/b&gt;&lt;/span&gt;&lt;/div&gt;&lt;/div&gt;&lt;div style=&quot;font-size: 19px;&quot;&gt;id&lt;/div&gt;&lt;div style=&quot;font-size: 19px;&quot;&gt;тип&lt;/div&gt;&lt;div style=&quot;font-size: 19px;&quot;&gt;&lt;span style=&quot;background-color: initial;&quot;&gt;кол-во&lt;/span&gt;&lt;/div&gt;&lt;div style=&quot;font-size: 19px;&quot;&gt;разрешение&lt;/div&gt;&lt;div style=&quot;font-size: 19px;&quot;&gt;время съёмки&lt;/div&gt;&lt;div style=&quot;font-size: 19px;&quot;&gt;частота съёмки&lt;/div&gt;&lt;div style=&quot;font-size: 19px;&quot;&gt;местоположение&lt;br&gt;&lt;/div&gt;&lt;div style=&quot;font-size: 19px;&quot;&gt;probe_id&lt;/div&gt;" style="rounded=0;whiteSpace=wrap;html=1;align=left;" vertex="1" parent="1">
          <mxGeometry x="300" y="1129" width="290" height="230" as="geometry" />
        </mxCell>
        <mxCell id="asJcrZCVPH8W28nxY72f-12" value="" style="whiteSpace=wrap;html=1;aspect=fixed;" vertex="1" parent="1">
          <mxGeometry x="270" y="1369" width="80" as="geometry" />
        </mxCell>
        <mxCell id="asJcrZCVPH8W28nxY72f-13" value="&lt;div&gt;&lt;div style=&quot;text-align: center;&quot;&gt;&lt;span style=&quot;font-size: 20px;&quot;&gt;&lt;b&gt;Probe&lt;/b&gt;&lt;/span&gt;&lt;/div&gt;&lt;/div&gt;&lt;div style=&quot;font-size: 19px;&quot;&gt;id&lt;/div&gt;&lt;div style=&quot;font-size: 19px;&quot;&gt;тип&lt;/div&gt;&lt;div style=&quot;font-size: 19px;&quot;&gt;время запуска&lt;/div&gt;&lt;div style=&quot;font-size: 19px;&quot;&gt;мощность&lt;/div&gt;&lt;div style=&quot;font-size: 19px;&quot;&gt;&lt;span style=&quot;background-color: initial;&quot;&gt;координаты&lt;span style=&quot;white-space: pre;&quot;&gt;&#x9;&lt;/span&gt;&lt;/span&gt;&lt;/div&gt;&lt;div style=&quot;font-size: 19px;&quot;&gt;&lt;div&gt;результаты запуска&lt;/div&gt;&lt;div&gt;asteroid_id&lt;/div&gt;&lt;/div&gt;" style="rounded=0;whiteSpace=wrap;html=1;align=left;" vertex="1" parent="1">
          <mxGeometry x="-280" y="1464.5" width="270" height="189" as="geometry" />
        </mxCell>
        <mxCell id="asJcrZCVPH8W28nxY72f-16" value="&lt;div&gt;&lt;div style=&quot;text-align: center;&quot;&gt;&lt;span style=&quot;font-size: 20px;&quot;&gt;&lt;b&gt;Signals&lt;/b&gt;&lt;/span&gt;&lt;/div&gt;&lt;div style=&quot;font-size: 19px;&quot;&gt;&lt;span style=&quot;background-color: initial;&quot;&gt;id&lt;br&gt;частота&lt;/span&gt;&lt;/div&gt;&lt;/div&gt;&lt;div style=&quot;font-size: 19px;&quot;&gt;длительность&lt;/div&gt;&lt;div style=&quot;font-size: 19px;&quot;&gt;время записи&lt;/div&gt;&lt;div style=&quot;font-size: 19px;&quot;&gt;объём данных&lt;/div&gt;&lt;div style=&quot;font-size: 19px;&quot;&gt;устройство для записи&lt;/div&gt;&lt;div style=&quot;font-size: 19px;&quot;&gt;probe_id&lt;/div&gt;" style="rounded=0;whiteSpace=wrap;html=1;align=left;" vertex="1" parent="1">
          <mxGeometry x="90" y="1740" width="340" height="220" as="geometry" />
        </mxCell>
        <mxCell id="asJcrZCVPH8W28nxY72f-17" value="&lt;div&gt;&lt;div style=&quot;text-align: center;&quot;&gt;&lt;span style=&quot;font-size: 20px;&quot;&gt;&lt;b&gt;Shot_to_Наблюдения&lt;/b&gt;&lt;/span&gt;&lt;/div&gt;&lt;/div&gt;&lt;div style=&quot;font-size: 19px;&quot;&gt;&lt;span style=&quot;background-color: initial;&quot;&gt;camera_id&lt;/span&gt;&lt;br&gt;&lt;/div&gt;&lt;div style=&quot;font-size: 19px;&quot;&gt;observation_id&lt;/div&gt;" style="rounded=0;whiteSpace=wrap;html=1;align=left;" vertex="1" parent="1">
          <mxGeometry x="745" y="1260" width="265" height="99" as="geometry" />
        </mxCell>
        <mxCell id="asJcrZCVPH8W28nxY72f-18" value="&lt;div&gt;&lt;div style=&quot;text-align: center;&quot;&gt;&lt;span style=&quot;font-size: 20px;&quot;&gt;&lt;b&gt;Наблюдения&lt;/b&gt;&lt;/span&gt;&lt;/div&gt;&lt;/div&gt;&lt;div style=&quot;font-size: 19px;&quot;&gt;id&lt;/div&gt;&lt;div style=&quot;font-size: 19px;&quot;&gt;методы&lt;/div&gt;&lt;div style=&quot;font-size: 19px;&quot;&gt;результаты&lt;/div&gt;&lt;div style=&quot;font-size: 19px;&quot;&gt;время наблюдения&lt;/div&gt;&lt;div style=&quot;font-size: 19px;&quot;&gt;местоположение&lt;/div&gt;&lt;div style=&quot;font-size: 19px;&quot;&gt;shots_id&lt;/div&gt;&lt;div style=&quot;font-size: 19px;&quot;&gt;signal_id&lt;/div&gt;" style="rounded=0;whiteSpace=wrap;html=1;align=left;" vertex="1" parent="1">
          <mxGeometry x="1010" y="1434" width="320" height="220" as="geometry" />
        </mxCell>
        <mxCell id="asJcrZCVPH8W28nxY72f-20" value="" style="edgeStyle=entityRelationEdgeStyle;fontSize=12;html=1;endArrow=ERoneToMany;rounded=0;exitX=1;exitY=0.5;exitDx=0;exitDy=0;entryX=0;entryY=0.5;entryDx=0;entryDy=0;" edge="1" parent="1" source="asJcrZCVPH8W28nxY72f-11" target="asJcrZCVPH8W28nxY72f-17">
          <mxGeometry width="100" height="100" relative="1" as="geometry">
            <mxPoint x="440" y="1719" as="sourcePoint" />
            <mxPoint x="540" y="1619" as="targetPoint" />
          </mxGeometry>
        </mxCell>
        <mxCell id="asJcrZCVPH8W28nxY72f-23" value="&lt;font face=&quot;Helvetica&quot; style=&quot;font-size: 19px;&quot;&gt;INT&lt;/font&gt;&lt;div style=&quot;font-size: 19px;&quot;&gt;&lt;font style=&quot;font-size: 19px;&quot; face=&quot;gNJBAgYqPjoJeCptMcND&quot;&gt;VARCHAR&lt;/font&gt;&lt;/div&gt;&lt;div style=&quot;font-size: 19px;&quot;&gt;&lt;font style=&quot;font-size: 19px;&quot; face=&quot;gNJBAgYqPjoJeCptMcND&quot;&gt;INT&lt;/font&gt;&lt;/div&gt;&lt;div style=&quot;font-size: 19px;&quot;&gt;&lt;font face=&quot;gNJBAgYqPjoJeCptMcND&quot; style=&quot;font-size: 19px;&quot;&gt;VARCHAR&lt;/font&gt;&lt;/div&gt;&lt;div style=&quot;font-size: 19px;&quot;&gt;&lt;font face=&quot;gNJBAgYqPjoJeCptMcND&quot; style=&quot;font-size: 19px;&quot;&gt;TEXT&lt;/font&gt;&lt;/div&gt;&lt;div style=&quot;font-size: 19px;&quot;&gt;&lt;font style=&quot;font-size: 19px;&quot;&gt;&lt;span style=&quot;font-family: gNJBAgYqPjoJeCptMcND; background-color: initial;&quot;&gt;INT&lt;br&gt;VARCHAR&lt;/span&gt;&lt;br&gt;&lt;/font&gt;&lt;/div&gt;&lt;div style=&quot;font-size: 19px;&quot;&gt;&lt;font style=&quot;font-size: 19px;&quot; face=&quot;gNJBAgYqPjoJeCptMcND&quot;&gt;VARCHAR&lt;/font&gt;&lt;/div&gt;&lt;div style=&quot;font-size: 19px;&quot;&gt;&lt;font style=&quot;font-size: 19px;&quot; face=&quot;gNJBAgYqPjoJeCptMcND&quot;&gt;TEXT&lt;/font&gt;&lt;/div&gt;&lt;div style=&quot;font-size: 19px;&quot;&gt;&lt;font style=&quot;font-size: 19px;&quot; face=&quot;wt7TC8eYJdjRpR3LWago&quot;&gt;INT&lt;/font&gt;&lt;/div&gt;&lt;div style=&quot;font-size: 19px;&quot;&gt;&lt;font style=&quot;font-size: 19px;&quot; face=&quot;wt7TC8eYJdjRpR3LWago&quot;&gt;TEXT&lt;/font&gt;&lt;/div&gt;" style="text;html=1;align=right;verticalAlign=middle;resizable=0;points=[];autosize=1;strokeColor=none;fillColor=none;" vertex="1" parent="1">
          <mxGeometry x="360" y="1434" width="110" height="260" as="geometry" />
        </mxCell>
        <mxCell id="asJcrZCVPH8W28nxY72f-24" value="" style="edgeStyle=entityRelationEdgeStyle;fontSize=12;html=1;endArrow=ERmany;rounded=0;exitX=0;exitY=0.5;exitDx=0;exitDy=0;entryX=1;entryY=0.5;entryDx=0;entryDy=0;" edge="1" parent="1" source="asJcrZCVPH8W28nxY72f-10" target="asJcrZCVPH8W28nxY72f-13">
          <mxGeometry width="100" height="100" relative="1" as="geometry">
            <mxPoint x="180" y="1644" as="sourcePoint" />
            <mxPoint x="170" y="1480.75" as="targetPoint" />
          </mxGeometry>
        </mxCell>
        <mxCell id="asJcrZCVPH8W28nxY72f-26" value="&lt;font face=&quot;Helvetica&quot; style=&quot;font-size: 18px;&quot;&gt;INT&lt;/font&gt;&lt;div style=&quot;font-size: 18px;&quot;&gt;&lt;font face=&quot;gNJBAgYqPjoJeCptMcND&quot;&gt;VARCHAR&lt;/font&gt;&lt;/div&gt;&lt;div style=&quot;font-size: 18px;&quot;&gt;&lt;font face=&quot;gNJBAgYqPjoJeCptMcND&quot;&gt;TIMESTAMP&lt;/font&gt;&lt;/div&gt;&lt;div style=&quot;font-size: 18px;&quot;&gt;&lt;span style=&quot;font-family: gNJBAgYqPjoJeCptMcND; background-color: initial;&quot;&gt;INT&lt;/span&gt;&lt;/div&gt;&lt;div style=&quot;font-size: 18px;&quot;&gt;&lt;span style=&quot;font-family: gNJBAgYqPjoJeCptMcND; background-color: initial;&quot;&gt;TEXT&lt;/span&gt;&lt;br&gt;&lt;/div&gt;&lt;div style=&quot;font-size: 18px;&quot;&gt;&lt;font face=&quot;gNJBAgYqPjoJeCptMcND&quot;&gt;TEXT&lt;/font&gt;&lt;/div&gt;&lt;div style=&quot;font-size: 18px;&quot;&gt;&lt;font face=&quot;gNJBAgYqPjoJeCptMcND&quot;&gt;INT&lt;/font&gt;&lt;/div&gt;" style="text;html=1;align=right;verticalAlign=middle;resizable=0;points=[];autosize=1;strokeColor=none;fillColor=none;" vertex="1" parent="1">
          <mxGeometry x="-150" y="1493.5" width="130" height="160" as="geometry" />
        </mxCell>
        <mxCell id="asJcrZCVPH8W28nxY72f-27" value="&lt;font face=&quot;Helvetica&quot; style=&quot;font-size: 18px;&quot;&gt;INT&lt;/font&gt;&lt;div style=&quot;font-size: 18px;&quot;&gt;&lt;font face=&quot;gNJBAgYqPjoJeCptMcND&quot;&gt;VARCHAR&lt;/font&gt;&lt;/div&gt;&lt;div style=&quot;font-size: 18px;&quot;&gt;&lt;font face=&quot;gNJBAgYqPjoJeCptMcND&quot;&gt;INT&lt;/font&gt;&lt;/div&gt;&lt;div style=&quot;font-size: 18px;&quot;&gt;&lt;font face=&quot;gNJBAgYqPjoJeCptMcND&quot;&gt;INT&lt;/font&gt;&lt;/div&gt;&lt;div style=&quot;font-size: 18px;&quot;&gt;&lt;font face=&quot;gNJBAgYqPjoJeCptMcND&quot;&gt;TIMESTAMP&lt;/font&gt;&lt;/div&gt;&lt;div style=&quot;font-size: 18px;&quot;&gt;&lt;font face=&quot;gNJBAgYqPjoJeCptMcND&quot;&gt;INT&lt;/font&gt;&lt;/div&gt;&lt;div style=&quot;font-size: 18px;&quot;&gt;&lt;font face=&quot;gNJBAgYqPjoJeCptMcND&quot;&gt;VARCHAR&lt;/font&gt;&lt;/div&gt;&lt;div style=&quot;font-size: 18px;&quot;&gt;&lt;font face=&quot;gNJBAgYqPjoJeCptMcND&quot;&gt;INT&lt;/font&gt;&lt;/div&gt;" style="text;html=1;align=right;verticalAlign=middle;resizable=0;points=[];autosize=1;strokeColor=none;fillColor=none;" vertex="1" parent="1">
          <mxGeometry x="450" y="1169" width="130" height="190" as="geometry" />
        </mxCell>
        <mxCell id="asJcrZCVPH8W28nxY72f-28" value="&lt;font face=&quot;Helvetica&quot; style=&quot;font-size: 19px;&quot;&gt;INT&lt;/font&gt;&lt;div style=&quot;font-size: 19px;&quot;&gt;&lt;font face=&quot;Helvetica&quot; style=&quot;font-size: 19px;&quot;&gt;TEXT&lt;/font&gt;&lt;/div&gt;&lt;div style=&quot;font-size: 19px;&quot;&gt;&lt;font face=&quot;Helvetica&quot; style=&quot;font-size: 19px;&quot;&gt;TEXT&lt;/font&gt;&lt;/div&gt;&lt;div style=&quot;font-size: 19px;&quot;&gt;&lt;font face=&quot;Helvetica&quot; style=&quot;font-size: 19px;&quot;&gt;TIMESTAMP&lt;/font&gt;&lt;/div&gt;&lt;div style=&quot;font-size: 19px;&quot;&gt;&lt;font face=&quot;Helvetica&quot; style=&quot;font-size: 19px;&quot;&gt;VARCHAR&lt;/font&gt;&lt;/div&gt;&lt;div style=&quot;font-size: 19px;&quot;&gt;&lt;font face=&quot;Helvetica&quot; style=&quot;font-size: 19px;&quot;&gt;INT&lt;/font&gt;&lt;/div&gt;&lt;div style=&quot;font-size: 19px;&quot;&gt;&lt;font face=&quot;Helvetica&quot; style=&quot;font-size: 19px;&quot;&gt;&lt;font style=&quot;font-size: 19px;&quot;&gt;INT&lt;/font&gt;&lt;br&gt;&lt;/font&gt;&lt;/div&gt;" style="text;html=1;align=right;verticalAlign=middle;resizable=0;points=[];autosize=1;strokeColor=none;fillColor=none;" vertex="1" parent="1">
          <mxGeometry x="1190" y="1474" width="130" height="170" as="geometry" />
        </mxCell>
        <mxCell id="asJcrZCVPH8W28nxY72f-29" value="&lt;font face=&quot;Helvetica&quot; style=&quot;font-size: 18px;&quot;&gt;INT&lt;/font&gt;&lt;div&gt;&lt;span style=&quot;font-size: 18px;&quot;&gt;INT&lt;/span&gt;&lt;/div&gt;" style="text;html=1;align=right;verticalAlign=middle;resizable=0;points=[];autosize=1;strokeColor=none;fillColor=none;" vertex="1" parent="1">
          <mxGeometry x="950" y="1290" width="50" height="60" as="geometry" />
        </mxCell>
        <mxCell id="asJcrZCVPH8W28nxY72f-30" value="&lt;font face=&quot;Helvetica&quot; style=&quot;font-size: 19px;&quot;&gt;INT&lt;/font&gt;&lt;div style=&quot;font-size: 19px;&quot;&gt;&lt;font style=&quot;font-size: 19px;&quot;&gt;INT&lt;/font&gt;&lt;/div&gt;&lt;div style=&quot;font-size: 19px;&quot;&gt;&lt;font style=&quot;font-size: 19px;&quot;&gt;VARCHAR&lt;/font&gt;&lt;/div&gt;&lt;div style=&quot;font-size: 19px;&quot;&gt;&lt;font style=&quot;font-size: 19px;&quot;&gt;TIMESTAMP&lt;/font&gt;&lt;/div&gt;&lt;div style=&quot;font-size: 19px;&quot;&gt;&lt;font style=&quot;font-size: 19px;&quot;&gt;INT&lt;/font&gt;&lt;/div&gt;&lt;div style=&quot;font-size: 19px;&quot;&gt;&lt;font style=&quot;font-size: 19px;&quot;&gt;VARCHER&lt;/font&gt;&lt;/div&gt;&lt;div style=&quot;font-size: 19px;&quot;&gt;&lt;font style=&quot;font-size: 19px;&quot;&gt;INT&lt;/font&gt;&lt;/div&gt;" style="text;html=1;align=right;verticalAlign=middle;resizable=0;points=[];autosize=1;strokeColor=none;fillColor=none;" vertex="1" parent="1">
          <mxGeometry x="285" y="1780" width="130" height="170" as="geometry" />
        </mxCell>
        <mxCell id="asJcrZCVPH8W28nxY72f-32" value="" style="edgeStyle=entityRelationEdgeStyle;fontSize=12;html=1;endArrow=ERmany;startArrow=ERmany;rounded=0;entryX=-0.012;entryY=0.797;entryDx=0;entryDy=0;exitX=1;exitY=0.5;exitDx=0;exitDy=0;entryPerimeter=0;" edge="1" parent="1" source="asJcrZCVPH8W28nxY72f-1" target="asJcrZCVPH8W28nxY72f-5">
          <mxGeometry width="100" height="100" relative="1" as="geometry">
            <mxPoint x="710" y="850" as="sourcePoint" />
            <mxPoint x="770" y="740" as="targetPoint" />
            <Array as="points">
              <mxPoint x="935" y="970" />
              <mxPoint x="935" y="930" />
              <mxPoint x="1120" y="230" />
            </Array>
          </mxGeometry>
        </mxCell>
        <mxCell id="asJcrZCVPH8W28nxY72f-37" value="" style="edgeStyle=entityRelationEdgeStyle;fontSize=12;html=1;endArrow=ERoneToMany;rounded=0;entryX=0;entryY=0.75;entryDx=0;entryDy=0;exitX=0;exitY=1;exitDx=0;exitDy=0;" edge="1" parent="1" source="gXjTStoN0BY3kQTBtwNk-87" target="asJcrZCVPH8W28nxY72f-1">
          <mxGeometry width="100" height="100" relative="1" as="geometry">
            <mxPoint x="-90" y="650" as="sourcePoint" />
            <mxPoint x="10" y="550" as="targetPoint" />
            <Array as="points">
              <mxPoint x="-660" y="710" />
            </Array>
          </mxGeometry>
        </mxCell>
        <mxCell id="asJcrZCVPH8W28nxY72f-38" value="" style="edgeStyle=entityRelationEdgeStyle;fontSize=12;html=1;endArrow=ERmany;startArrow=ERmany;rounded=0;entryX=1;entryY=1;entryDx=0;entryDy=0;exitX=0;exitY=0;exitDx=0;exitDy=0;" edge="1" parent="1" source="asJcrZCVPH8W28nxY72f-5" target="gXjTStoN0BY3kQTBtwNk-84">
          <mxGeometry width="100" height="100" relative="1" as="geometry">
            <mxPoint x="470" y="490" as="sourcePoint" />
            <mxPoint x="620" y="280" as="targetPoint" />
            <Array as="points">
              <mxPoint x="770" y="400" />
              <mxPoint x="780" y="450" />
              <mxPoint x="610" y="400" />
              <mxPoint x="730" y="420" />
            </Array>
          </mxGeometry>
        </mxCell>
        <mxCell id="asJcrZCVPH8W28nxY72f-40" value="" style="edgeStyle=entityRelationEdgeStyle;fontSize=12;html=1;endArrow=ERoneToMany;rounded=0;entryX=0;entryY=0.5;entryDx=0;entryDy=0;exitX=0.5;exitY=1;exitDx=0;exitDy=0;" edge="1" parent="1" source="asJcrZCVPH8W28nxY72f-13" target="asJcrZCVPH8W28nxY72f-16">
          <mxGeometry width="100" height="100" relative="1" as="geometry">
            <mxPoint x="-200" y="1649" as="sourcePoint" />
            <mxPoint x="-160" y="1883" as="targetPoint" />
            <Array as="points">
              <mxPoint x="-710" y="1940" />
              <mxPoint x="-200" y="1860" />
            </Array>
          </mxGeometry>
        </mxCell>
        <mxCell id="asJcrZCVPH8W28nxY72f-41" value="" style="edgeStyle=entityRelationEdgeStyle;fontSize=12;html=1;endArrow=ERoneToMany;rounded=0;entryX=0;entryY=0;entryDx=0;entryDy=0;exitX=0.25;exitY=0;exitDx=0;exitDy=0;" edge="1" parent="1" source="gXjTStoN0BY3kQTBtwNk-87" target="gXjTStoN0BY3kQTBtwNk-84">
          <mxGeometry width="100" height="100" relative="1" as="geometry">
            <mxPoint x="280" y="450" as="sourcePoint" />
            <mxPoint x="380" y="350" as="targetPoint" />
            <Array as="points">
              <mxPoint x="120" y="90" />
            </Array>
          </mxGeometry>
        </mxCell>
        <mxCell id="asJcrZCVPH8W28nxY72f-42" value="" style="edgeStyle=entityRelationEdgeStyle;fontSize=12;html=1;endArrow=ERoneToMany;rounded=0;entryX=0;entryY=0.25;entryDx=0;entryDy=0;exitX=1;exitY=0;exitDx=0;exitDy=0;" edge="1" parent="1" source="asJcrZCVPH8W28nxY72f-13" target="asJcrZCVPH8W28nxY72f-11">
          <mxGeometry width="100" height="100" relative="1" as="geometry">
            <mxPoint x="260" y="1669" as="sourcePoint" />
            <mxPoint x="360" y="1569" as="targetPoint" />
            <Array as="points">
              <mxPoint x="100" y="1269" />
            </Array>
          </mxGeometry>
        </mxCell>
        <mxCell id="asJcrZCVPH8W28nxY72f-43" value="&lt;div&gt;&lt;div style=&quot;text-align: center;&quot;&gt;&lt;span style=&quot;font-size: 20px;&quot;&gt;&lt;b&gt;Signal_to_Наблюдения&lt;/b&gt;&lt;/span&gt;&lt;/div&gt;&lt;/div&gt;&lt;div style=&quot;font-size: 19px;&quot;&gt;&lt;span style=&quot;background-color: initial;&quot;&gt;camera_id&lt;/span&gt;&lt;br&gt;&lt;/div&gt;&lt;div style=&quot;font-size: 19px;&quot;&gt;&lt;span style=&quot;background-color: initial;&quot;&gt;signal_id&lt;/span&gt;&lt;/div&gt;" style="rounded=0;whiteSpace=wrap;html=1;align=left;" vertex="1" parent="1">
          <mxGeometry x="570" y="1770" width="270" height="100" as="geometry" />
        </mxCell>
        <mxCell id="asJcrZCVPH8W28nxY72f-44" value="&lt;font face=&quot;Helvetica&quot; style=&quot;font-size: 18px;&quot;&gt;INT&lt;/font&gt;&lt;div&gt;&lt;span style=&quot;font-size: 18px; background-color: initial;&quot;&gt;INT&lt;/span&gt;&lt;/div&gt;" style="text;html=1;align=right;verticalAlign=middle;resizable=0;points=[];autosize=1;strokeColor=none;fillColor=none;" vertex="1" parent="1">
          <mxGeometry x="760" y="1800" width="50" height="60" as="geometry" />
        </mxCell>
        <mxCell id="asJcrZCVPH8W28nxY72f-45" value="" style="edgeStyle=entityRelationEdgeStyle;fontSize=12;html=1;endArrow=ERoneToMany;rounded=0;entryX=0;entryY=0.5;entryDx=0;entryDy=0;exitX=1;exitY=0.5;exitDx=0;exitDy=0;" edge="1" parent="1" source="asJcrZCVPH8W28nxY72f-16" target="asJcrZCVPH8W28nxY72f-43">
          <mxGeometry width="100" height="100" relative="1" as="geometry">
            <mxPoint x="490" y="2014" as="sourcePoint" />
            <mxPoint x="590" y="1914" as="targetPoint" />
            <Array as="points">
              <mxPoint x="420" y="2144" />
            </Array>
          </mxGeometry>
        </mxCell>
        <mxCell id="asJcrZCVPH8W28nxY72f-46" value="" style="edgeStyle=entityRelationEdgeStyle;fontSize=12;html=1;endArrow=ERoneToMany;rounded=0;entryX=1;entryY=0.5;entryDx=0;entryDy=0;exitX=0;exitY=0.75;exitDx=0;exitDy=0;" edge="1" parent="1" source="asJcrZCVPH8W28nxY72f-18" target="asJcrZCVPH8W28nxY72f-43">
          <mxGeometry width="100" height="100" relative="1" as="geometry">
            <mxPoint x="540" y="2090" as="sourcePoint" />
            <mxPoint x="680" y="2060" as="targetPoint" />
            <Array as="points">
              <mxPoint x="530" y="2384" />
              <mxPoint x="990" y="2190" />
            </Array>
          </mxGeometry>
        </mxCell>
        <mxCell id="asJcrZCVPH8W28nxY72f-47" value="" style="edgeStyle=entityRelationEdgeStyle;fontSize=12;html=1;endArrow=ERoneToMany;rounded=0;exitX=0;exitY=0;exitDx=0;exitDy=0;entryX=0.5;entryY=1;entryDx=0;entryDy=0;" edge="1" parent="1" source="asJcrZCVPH8W28nxY72f-18" target="asJcrZCVPH8W28nxY72f-17">
          <mxGeometry width="100" height="100" relative="1" as="geometry">
            <mxPoint x="570" y="1450" as="sourcePoint" />
            <mxPoint x="795" y="1625" as="targetPoint" />
          </mxGeometry>
        </mxCell>
      </root>
    </mxGraphModel>
  </diagram>
</mxfile>
